<svg xmlns="http://www.w3.org/2000/svg" width="48" height="48" viewBox="0 0 48 48">
  <g>
    <circle fill="#25D366" cx="24" cy="24" r="24"/>
    <path fill="#FFF" d="M34.6 29.7c-.5-.2-2.8-1.4-3.2-1.6-.4-.2-.7-.2-1 .2-.3.4-1.1 1.6-1.4 1.9-.3.3-.5.4-1 .1-.5-.2-2-0.7-3.8-2.2-1.4-1.2-2.3-2.7-2.6-3.2-.3-.5 0-.7.2-.9.2-.2.5-.6.7-.8.2-.3.2-.5.3-.8.1-.3 0-.6-.1-.8-.1-.2-1-2.4-1.4-3.3-.4-.9-.7-.8-1-.8-.3 0-.6 0-.9 0-.3 0-.8.1-1.2.6-.4.5-1.5 1.5-1.5 3.6 0 2.1 1.5 4.1 1.7 4.4.2.3 3.1 4.7 7.6 6.1.6.2 1.1.3 1.5.4.6.1 1.1.1 1.5.1.5 0 1.5-.2 2.1-.7.6-.5 1.1-1.2 1.2-1.6.1-.4.1-.7 0-.8-.1-.1-.4-.2-.9-.4z"/>
  </g>
</svg> 